<svg width="258" height="54" viewBox="0 0 258 54" fill="none" xmlns="http://www.w3.org/2000/svg">
<path d="M40.708 0H0V11.2909H40.708V0Z" fill="#FAE07E"/>
<path d="M53.9503 0H44.1411V11.2909H53.9503V0Z" fill="#193062"/>
<path d="M30.4084 14.2855H0V25.5273H30.4084V14.2855Z" fill="#FAE07E"/>
<path d="M53.9506 14.2855H33.8418V25.5273H53.9506V14.2855Z" fill="#193062"/>
<path d="M20.1088 28.5218H0V39.7636H20.1088V28.5218Z" fill="#FAE07E"/>
<path d="M53.9504 28.5218H23.542V39.7636H53.9504V28.5218Z" fill="#193062"/>
<path d="M9.80916 42.7582H0V54H9.80916V42.7582Z" fill="#FAE07E"/>
<path d="M53.9502 42.7582H13.2422V54H53.9502V42.7582Z" fill="#193062"/>
<path d="M85.634 16.2982H76.5605V11.34H99.8573V16.2982H90.7838V42.7091H85.634V16.2982Z" fill="#193062"/>
<path d="M98.6802 20.6182H103.536V24.5455C104.369 22.0418 106.822 20.3728 109.323 20.3728C109.961 20.3728 110.549 20.4218 111.236 20.5691V25.5764C110.402 25.3309 109.715 25.1837 108.833 25.1837C106.037 25.1837 103.536 27.54 103.536 31.9582V42.7582H98.6802V20.6182Z" fill="#193062"/>
<path d="M115.013 20.6182H119.868V33.0382C119.868 36.5728 121.438 38.7328 124.282 38.7328C127.421 38.7328 129.628 36.2291 129.628 31.4673V20.6182H134.484V42.7091H129.628V39.7146C128.353 41.9237 125.999 43.1509 123.203 43.1509C118.152 43.1509 115.013 39.4691 115.013 33.8237V20.6182Z" fill="#193062"/>
<path d="M141.645 34.3637C143.263 36.8673 145.862 38.3891 148.903 38.3891C151.944 38.3891 153.955 36.8673 153.955 34.5109C153.955 32.3018 152.484 30.8291 149.492 29.7491L146.059 28.5218C141.105 26.7055 138.653 23.9564 138.653 19.6855C138.653 14.1873 143.018 10.8491 148.805 10.8491C152.68 10.8491 155.966 12.42 158.271 15.12L154.691 18.6055C153.121 16.74 151.159 15.7091 148.756 15.7091C146.108 15.7091 143.852 17.0837 143.852 19.3418C143.852 21.6 145.372 22.68 148.609 23.8582L151.797 25.0364C156.407 26.7546 159.203 29.5528 159.154 34.2164C159.154 39.7146 154.838 43.2982 148.707 43.2982C143.655 43.2982 139.487 40.9909 137.574 37.6528L141.645 34.3637Z" fill="#193062"/>
<path d="M188.777 20.1764C191.965 20.1764 194.565 21.7964 195.84 23.5637V20.6182H200.696V42.7091H195.84V39.7637C194.614 41.5309 191.965 43.1509 188.777 43.1509C182.745 43.1509 178.184 37.9964 178.184 31.6637C178.184 25.3309 182.745 20.1764 188.777 20.1764ZM189.66 24.5946C185.737 24.5946 183.088 27.6873 183.088 31.6637C183.088 35.64 185.737 38.7328 189.66 38.7328C193.584 38.7328 196.232 35.64 196.232 31.6637C196.232 27.6873 193.584 24.5946 189.66 24.5946Z" fill="#193062"/>
<path d="M215.262 52.38C210.946 52.38 207.12 50.76 204.962 48.3055L207.905 44.82C209.769 46.8328 212.27 48.06 215.213 48.06C218.842 48.06 221.834 45.6546 221.834 41.1873V39.1746C220.51 41.1382 217.812 42.6109 214.771 42.6109C208.837 42.6109 204.227 37.6528 204.227 31.3691C204.227 25.0855 208.837 20.1764 214.771 20.1764C217.812 20.1764 220.51 21.6491 221.834 23.5637V20.6182H226.69V41.1873C226.69 48.8946 221.785 52.38 215.262 52.38ZM215.703 38.0946C219.431 38.0946 222.275 35.2473 222.275 31.32C222.275 27.3928 219.48 24.5455 215.703 24.5455C211.927 24.5455 209.131 27.3928 209.131 31.32C209.131 35.2473 211.976 38.0946 215.703 38.0946Z" fill="#193062"/>
<path d="M241.55 20.1764C247.338 20.1764 252.144 24.0055 252.144 31.1237C252.144 31.6146 252.144 32.0073 252.095 32.6946H234.782C234.978 36.3273 237.921 38.6837 241.55 38.6837C244.64 38.6837 246.7 37.26 247.828 35.3455L251.507 37.9964C249.545 41.1382 246.112 43.1018 241.452 43.1018C234.782 43.1018 229.976 38.34 229.976 31.6146C230.074 25.1837 234.88 20.1764 241.55 20.1764ZM235.027 29.16H247.24C246.7 25.9691 244.15 24.2509 241.354 24.2509C238.559 24.3 235.714 25.92 235.027 29.16Z" fill="#193062"/>
<path d="M160.135 20.6182V24.9382H164.696V35.5909C164.696 40.5982 167.982 42.9055 172.2 42.9055C173.671 42.9055 174.849 42.7091 175.829 42.4146V38.0946C175.143 38.34 174.162 38.5364 173.23 38.5364C170.729 38.5364 169.552 37.5055 169.552 34.7564V24.8891H175.829V20.5691H169.552V14.4818H164.696V17.2309C164.696 19.0964 163.176 20.5691 161.361 20.6182H160.135Z" fill="#193062"/>
<path d="M251.339 14.6909H250.156V14.0581H253.172V14.6909H251.988V18H251.339V14.6909ZM254.255 14.0581H254.898L256.063 16.5735L257.224 14.0581H257.867V18H257.218V15.5057L256.058 18.0422L254.89 15.5109V18H254.255V14.0581Z" fill="#193062"/>
</svg>
